<svg width="30" height="22" viewBox="0 0 30 22" fill="none" xmlns="http://www.w3.org/2000/svg">
<path fill-rule="evenodd" clip-rule="evenodd" d="M6.95987 0.355267C7.35569 0.795817 7.32007 1.47434 6.88025 1.87087L3.59843 4.82927H21.4286C26.1624 4.82927 30 8.6731 30 13.4146C30 18.1562 26.1624 22 21.4286 22H7.5C6.90824 22 6.42857 21.5196 6.42857 20.9268C6.42857 20.3342 6.90824 19.8537 7.5 19.8537H21.4286C24.979 19.8537 27.8571 16.9708 27.8571 13.4146C27.8571 9.85848 24.979 6.97561 21.4286 6.97561H3.59843L6.88025 9.93401C7.32007 10.3305 7.35569 11.0091 6.95987 11.4497C6.56404 11.8902 5.88656 11.9259 5.44674 11.5294L0.532025 7.09896C-0.177341 6.45948 -0.177341 5.3454 0.532019 4.70592L5.44674 0.275497C5.88656 -0.120992 6.56404 -0.0852826 6.95987 0.355267Z" fill="white"/>
</svg>
